<svg width="24" height="24" viewBox="0 0 24 24" fill="none" xmlns="http://www.w3.org/2000/svg">
<path fill-rule="evenodd" clip-rule="evenodd" d="M13.06 16.06C12.7787 16.3409 12.3975 16.4987 12 16.4987C11.6025 16.4987 11.2212 16.3409 10.94 16.06L5.282 10.404C5.00073 10.1226 4.84278 9.741 4.84287 9.34315C4.84296 8.94529 5.0011 8.56376 5.2825 8.2825C5.56389 8.00124 5.94549 7.84328 6.34335 7.84337C6.74121 7.84347 7.12273 8.0016 7.404 8.283L12 12.879L16.596 8.283C16.8788 8.00963 17.2576 7.85825 17.6509 7.86148C18.0442 7.86472 18.4205 8.02229 18.6987 8.30027C18.977 8.57826 19.1349 8.9544 19.1385 9.3477C19.1421 9.74099 18.9911 10.12 18.718 10.403L13.061 16.061L13.06 16.06Z" fill="#ddd"/>
</svg>
